HIERARCHY
ROOT Hips
{
    OFFSET 0.0 0.0 0.0
    CHANNELS 6 Xposition Yposition Zposition Zrotation Xrotation Yrotation
    JOINT LeftHipJoint
    {
        OFFSET 0.1 0.0 0.0
        CHANNELS 3 Zrotation Xrotation Yrotation
        JOINT LeftUpLeg
        {
            OFFSET 123.35771596599244 0.0 0.0
            CHANNELS 3 Zrotation Xrotation Yrotation
            JOINT LeftLeg
            {
                OFFSET 0.0 0.0 -415.0289933787677
                CHANNELS 3 Zrotation Xrotation Yrotation
                JOINT LeftFoot
                {
                    OFFSET 0.0 0.0 -406.1657106787402
                    CHANNELS 3 Zrotation Xrotation Yrotation
                    End Site
                    {
                        OFFSET 0.0 -0.1 0.0
                    }
                }
            }
        }
    }
    JOINT LowerBack
    {
        OFFSET 0.0 0.0 0.1
        CHANNELS 3 Zrotation Xrotation Yrotation
        JOINT Spine
        {
            OFFSET 0.0 0.0 219.5233380395291
            CHANNELS 3 Zrotation Xrotation Yrotation
            JOINT Spine1
            {
                OFFSET 0.0 0.0 251.80363927604571
                CHANNELS 3 Zrotation Xrotation Yrotation
                JOINT LeftShoulder
                {
                    OFFSET 0.1 0.0 0.0
                    CHANNELS 3 Zrotation Xrotation Yrotation
                    JOINT LeftArm
                    {
                        OFFSET 142.3004812630943 0.0 0.0
                        CHANNELS 3 Zrotation Xrotation Yrotation
                        JOINT LeftForeArm
                        {
                            OFFSET 261.69864421971977 0.0 0.0
                            CHANNELS 3 Zrotation Xrotation Yrotation
                            JOINT LeftHand
                            {
                                OFFSET 246.832377315739 0.0 0.0
                                CHANNELS 3 Zrotation Xrotation Yrotation
                                End Site
                                {
                                    OFFSET 0.1 0.0 0.0
                                }
                            }
                        }
                    }
                }
                JOINT Neck
                {
                    OFFSET 0.0 0.0 0.1
                    CHANNELS 3 Zrotation Xrotation Yrotation
                    JOINT Neck1
                    {
                        OFFSET 0.0 0.0 106.82571775733776
                        CHANNELS 3 Zrotation Xrotation Yrotation
                        End Site
                        {
                            OFFSET 0.0 0.0 116.87416798715448
                        }
                    }
                }
                JOINT RightShoulder
                {
                    OFFSET -0.1 0.0 0.0
                    CHANNELS 3 Zrotation Xrotation Yrotation
                    JOINT RightArm
                    {
                        OFFSET -142.3004812630943 0.0 0.0
                        CHANNELS 3 Zrotation Xrotation Yrotation
                        JOINT RightForeArm
                        {
                            OFFSET -261.69864421971977 0.0 0.0
                            CHANNELS 3 Zrotation Xrotation Yrotation
                            JOINT RightHand
                            {
                                OFFSET -246.832377315739 0.0 0.0
                                CHANNELS 3 Zrotation Xrotation Yrotation
                                End Site
                                {
                                    OFFSET -0.1 0.0 0.0
                                }
                            }
                        }
                    }
                }
            }
        }
    }
    JOINT RightHipJoint
    {
        OFFSET -0.1 0.0 0.0
        CHANNELS 3 Zrotation Xrotation Yrotation
        JOINT RightUpLeg
        {
            OFFSET -123.35771596599244 0.0 0.0
            CHANNELS 3 Zrotation Xrotation Yrotation
            JOINT RightLeg
            {
                OFFSET 0.0 0.0 -415.0289933787677
                CHANNELS 3 Zrotation Xrotation Yrotation
                JOINT RightFoot
                {
                    OFFSET 0.0 0.0 -406.1657106787402
                    CHANNELS 3 Zrotation Xrotation Yrotation
                    End Site
                    {
                        OFFSET 0.0 -0.1 0.0
                    }
                }
            }
        }
    }
}
MOTION
Frames: 8
Frame Time: 0.03333333333333333
0.0 0.0 823.7964014800002 29.556552464363712 0.09182199933390116 6.2520295096511 0.0 0.0 4.472655020808071e-16 0.3705348245457769 -16.927314455999117 -2.2392134167906015 -2.0398593074263047 30.132157671927875 0.09513859569673669 0.0 0.0 3.975693351829396e-16 0.0 0.0 4.472655020808071e-16 0.03164520900467613 -1.4946712375500042 0.5687069951467717 1.0894916484715822 -5.953820802495816e-16 1.0505765636117989e-16 0.0 0.0 9.93923337957349e-17 -35.79437482552249 16.15552293613744 75.22206749562804 -25.749698010572963 -1.6831962538051492e-15 -6.909883557634944e-15 -3.1805546814635164e-15 -2.1517793202994523e-31 7.75260203606732e-15 0.0 0.0 9.93923337957349e-17 -14.140390010707977 -3.1626218088091433 -11.60506813714162 0.0 0.0 9.93923337957349e-17 1.3217602293593012 -48.54683675289489 -41.138417119767546 116.40267597343396 -3.351897195197593e-15 5.406338642736363e-15 1.5902773407317582e-15 0.0 0.0 0.0 0.0 4.472655020808071e-16 0.1540322096121134 -7.284766204708375 -7.0508719466516325 -3.1946929048665944 20.975326054768416 3.1269336920392283 0.0 0.0 -3.975693351829396e-16
0.0 0.0 823.7964014800002 29.454926608454798 0.06280059489638558 6.237392854228769 0.0 0.0 4.969616689786745e-17 0.37317500545603416 -16.890756087873395 -2.235434486623299 -2.0468562502390166 30.1605361624027 0.15741409764784456 -3.1805546814635168e-15 0.0 0.0 0.0 0.0 4.969616689786745e-17 0.03412747362205674 -1.5967162737363483 0.5650174651390169 1.098960246354415 -2.016350706590033e-16 -2.962569265115248e-16 1.034509288605506e-33 -3.9756933518293955e-16 2.9817700138720465e-16 -35.39567527929059 16.163607598704314 75.22519123921217 -25.82663216545358 -1.1946682270281473e-15 -1.9054479442428156e-15 1.5902773407317588e-15 1.1034765745125397e-32 7.951386703658794e-16 1.034509288605506e-33 -3.9756933518293955e-16 2.9817700138720465e-16 -14.016447738890237 -3.1853765178473337 -11.533786226485146 1.034509288605506e-33 -3.9756933518293955e-16 2.9817700138720465e-16 1.5858453716064562 -48.427944264800466 -40.966935257532235 116.0806450710532 -3.3670771013244545e-15 5.396897638537763e-15 0.0 0.0 0.0 0.0 0.0 4.969616689786745e-17 0.15603312672444203 -7.308906005846125 -7.0231514585026344 -3.195971428105361 21.020780614892185 3.149212343420243 0.0 0.0 0.0
0.0 0.0 823.7964014800002 29.39823594032072 0.1306730608765104 6.252919354956532 0.0 0.0 -1.4908850069360235e-16 0.34503040085048686 -16.950080210079037 -2.2757034828450355 -2.0240496591934978 30.315201553563117 0.1182773668766697 0.0 0.0 -7.951386703658792e-16 0.0 0.0 -1.4908850069360235e-16 0.035181596569850794 -1.7873221675985196 0.5013979587664172 1.1661466969319199 3.8945712024996556e-16 -7.99143311850651e-16 0.0 0.0 -1.9878466759146977e-16 -35.09844908012271 16.212413228333986 75.25051721669091 -26.026541024153076 2.399907670179886e-15 -3.3218164314315276e-15 0.0 0.0 -7.951386703658792e-16 0.0 0.0 -1.9878466759146977e-16 -14.052151076350784 -3.127733188278325 -11.412847637915876 0.0 0.0 -1.9878466759146977e-16 1.989575532048299 -48.21145880890246 -40.65492250065607 115.84783101321003 -2.0120107160259105e-15 -8.7680806071131e-15 0.0 0.0 0.0 0.0 0.0 -1.4908850069360235e-16 0.14429099403065673 -7.342354789011785 -7.0195339168236695 -3.189201438673559 21.2206761200677 3.1249946112254388 -1.3793457181406746e-33 -1.9878466759146977e-16 -7.951386703658791e-16
0.0 0.0 823.7964014800002 29.389576855902654 0.10502772332897091 6.274747719330611 0.0 0.0 2.981770013872047e-16 0.3285852944344767 -16.941922890898287 -2.3430161343279936 -2.0464331230800803 30.50809149064113 0.19202404739660056 0.0 0.0 0.0 0.0 0.0 2.981770013872047e-16 0.03329736946611643 -1.7758696197103947 0.45883230519023577 1.167868494956399 1.7750245882926558e-16 -2.0891565055868853e-15 0.0 0.0 0.0 -34.99197488510694 16.241269917385168 75.23392294334599 -26.042872922977025 -8.320875338441597e-15 1.4806250210944974e-14 0.0 0.0 -7.951386703658792e-16 0.0 0.0 0.0 -14.011739904600919 -3.243372721187497 -11.320105555759499 0.0 0.0 0.0 1.8545875594810044 -48.1571736223977 -40.70901213219207 116.0893018301037 -1.079430397441214e-14 -6.733338771847305e-15 -1.5902773407317584e-15 0.0 0.0 0.0 0.0 2.981770013872047e-16 0.13644943965147194 -7.294106267353924 -7.041289832828678 -3.184923137945144 21.272480678353855 3.0647247158158475 0.0 0.0 0.0
0.0 0.0 823.7964014800002 29.270575565070388 0.16918316851453982 6.2951634356682185 0.0 0.0 1.4908850069360235e-16 0.3415053002071423 -17.026156268410055 -2.3552548251360004 -2.08378309881718 30.594151550465437 0.1885958720838086 0.0 0.0 7.951386703658792e-16 0.0 0.0 1.4908850069360235e-16 0.033854974866721864 -1.7460643114344534 0.41098296136709234 1.152846731838854 1.1816485460093182e-15 -1.1052593624643962e-15 0.0 0.0 9.93923337957349e-17 -34.98063201602832 16.100482986351864 75.15686035303567 -26.059178777482376 -3.0345947279392636e-15 -8.047605789001829e-15 0.0 0.0 -4.47265502080807e-15 0.0 0.0 9.93923337957349e-17 -13.90978326299273 -3.3461337074315867 -11.345733856921983 0.0 0.0 9.93923337957349e-17 1.9726199454873294 -48.153730514772306 -40.67113811322565 116.21793676978699 -2.0403191617268857e-15 -8.761536530342498e-15 0.0 0.0 0.0 0.0 0.0 1.4908850069360235e-16 0.14492809403846918 -7.485307900184241 -7.055268079488227 -3.228857853121589 21.41413470753631 3.0378270627785895 0.0 0.0 -7.951386703658792e-16
0.0 0.0 823.7964014800002 29.24001902795546 0.16114583279209976 6.292638764046493 3.1805546814635164e-15 -1.9878466759146977e-16 -2.484808344893372e-16 0.3407171104100981 -17.004156186173255 -2.3565878220793395 -2.0771497904761267 30.513290101507412 0.14801808279639797 0.0 0.0 3.975693351829396e-16 3.1805546814635164e-15 -1.9878466759146977e-16 -2.484808344893372e-16 0.03415235623297382 -1.7629487386051135 0.3819606107008801 1.1966141806946935 -1.9669807253531952e-16 2.0084958650640146e-16 0.0 1.987846675914698e-16 0.0 -34.82727703296405 16.08960781135385 75.13525912342091 -26.104907780403174 -5.275402733066465e-15 1.5713698269944245e-14 0.0 0.0 -2.9817700138720468e-15 0.0 1.987846675914698e-16 0.0 -13.918797341331555 -3.2913791367473935 -11.3062330483084 0.0 1.987846675914698e-16 0.0 2.3657346874187963 -47.93034998307246 -40.36053488224724 116.27710962000103 -5.402662478782264e-15 -3.3578193023860375e-15 0.0 0.0 0.0 3.1805546814635164e-15 -1.9878466759146977e-16 -2.484808344893372e-16 0.1433055573788372 -7.408611346630589 -7.069315813522443 -3.2216493066395984 21.339616114427606 3.0354431935004156 0.0 0.0 0.0
0.0 0.0 823.7964014800002 29.26964482490004 0.23775152082222747 6.352606157588433 0.0 0.0 -1.4908850069360235e-16 0.32498569430399665 -17.02575633897676 -2.4568029579498862 -2.0903143892476055 30.35218880528307 0.15890244741824835 0.0 0.0 3.975693351829396e-16 0.0 0.0 -1.4908850069360235e-16 0.032670894284068254 -1.770900890354932 0.3257361135779152 1.2052793188169129 5.942302281878721e-16 -2.0504603532451206e-16 0.0 0.0 9.93923337957349e-17 -34.705333436477666 16.150545738483498 75.08678488465291 -26.312545624524038 -3.629804298421124e-15 8.54212917407405e-15 0.0 0.0 1.888454342118963e-15 0.0 0.0 9.93923337957349e-17 -13.849692949864076 -3.371633330595852 -11.266114628430547 0.0 0.0 9.93923337957349e-17 2.4825761767526373 -47.63298573254425 -40.3189697198771 116.74040478962291 -5.416193993310129e-15 -3.3359488835935804e-15 7.951386703658792e-16 0.0 0.0 0.0 0.0 -1.4908850069360235e-16 0.13950347585795705 -7.573408121371791 -7.112210639861316 -3.224927903850373 21.383550743643944 3.089234398702622 1.3793457181406746e-33 1.987846675914698e-16 -7.951386703658792e-16
0.0 0.0 823.7964014800002 29.290203151536424 0.29702981098830905 6.345535120210798 0.0 0.0 -2.4848083448933725e-16 0.32222824673295714 -16.96375518471499 -2.499654575159986 -2.1103487244260224 30.32889850743374 0.2609905296469 0.0 0.0 0.0 0.0 0.0 -2.4848083448933725e-16 0.03418630349142035 -1.86153372276127 0.3671152903404741 1.2140039624069656 -1.8824390332974936e-16 9.959734829125266e-16 0.0 0.0 -2.981770013872047e-16 -34.71311000609844 16.359431175042175 75.09464245760807 -26.462533154389433 -5.645147857633903e-15 3.1652125330014705e-15 3.180554681463516e-15 -1.848323262308504e-31 -6.659286364314237e-15 0.0 0.0 -2.981770013872047e-16 -13.820657152531833 -3.402389496848257 -11.299992759205871 0.0 0.0 -2.981770013872047e-16 2.6193915626447333 -47.31366795967714 -40.23561485378345 117.03874257249896 1.2188124606437998e-15 -1.4171558059062147e-14 0.0 0.0 0.0 0.0 0.0 -2.4848083448933725e-16 0.14190595023203503 -7.735664307474867 -7.071884391862247 -3.2185229467498755 21.453385840394606 3.100721526306662 0.0 0.0 -7.951386703658792e-16
